<svg width="20" height="20" viewBox="0 0 20 20" fill="none" xmlns="http://www.w3.org/2000/svg">
<path id="Vector" d="M10 5.38462C9.08716 5.38462 8.19483 5.6553 7.43583 6.16245C6.67683 6.66959 6.08527 7.39042 5.73594 8.23377C5.38661 9.07712 5.29521 10.0051 5.4733 10.9004C5.65138 11.7957 6.09096 12.6181 6.73643 13.2636C7.3819 13.909 8.20429 14.3486 9.09958 14.5267C9.99488 14.7048 10.9229 14.6134 11.7662 14.2641C12.6096 13.9147 13.3304 13.3232 13.8376 12.5642C14.3447 11.8052 14.6154 10.9128 14.6154 10C14.6141 8.77631 14.1274 7.60311 13.2622 6.73784C12.3969 5.87256 11.2237 5.38589 10 5.38462ZM10 13.0769C9.39144 13.0769 8.79655 12.8965 8.29055 12.5584C7.78456 12.2203 7.39018 11.7397 7.15729 11.1775C6.92441 10.6153 6.86348 9.99659 6.9822 9.39972C7.10092 8.80286 7.39397 8.2546 7.82429 7.82429C8.2546 7.39397 8.80286 7.10092 9.39972 6.9822C9.99659 6.86348 10.6153 6.92441 11.1775 7.15729C11.7397 7.39018 12.2203 7.78456 12.5584 8.29055C12.8965 8.79655 13.0769 9.39144 13.0769 10C13.0769 10.8161 12.7527 11.5987 12.1757 12.1757C11.5987 12.7527 10.8161 13.0769 10 13.0769ZM14.6154 0H5.38462C3.957 0.00152714 2.58828 0.569324 1.5788 1.5788C0.569324 2.58828 0.00152714 3.957 0 5.38462V14.6154C0.00152714 16.043 0.569324 17.4117 1.5788 18.4212C2.58828 19.4307 3.957 19.9985 5.38462 20H14.6154C16.043 19.9985 17.4117 19.4307 18.4212 18.4212C19.4307 17.4117 19.9985 16.043 20 14.6154V5.38462C19.9985 3.957 19.4307 2.58828 18.4212 1.5788C17.4117 0.569324 16.043 0.00152714 14.6154 0ZM18.4615 14.6154C18.4615 15.6354 18.0563 16.6137 17.335 17.335C16.6137 18.0563 15.6354 18.4615 14.6154 18.4615H5.38462C4.36455 18.4615 3.38627 18.0563 2.66497 17.335C1.94368 16.6137 1.53846 15.6354 1.53846 14.6154V5.38462C1.53846 4.36455 1.94368 3.38627 2.66497 2.66497C3.38627 1.94368 4.36455 1.53846 5.38462 1.53846H14.6154C15.6354 1.53846 16.6137 1.94368 17.335 2.66497C18.0563 3.38627 18.4615 4.36455 18.4615 5.38462V14.6154ZM16.1538 5C16.1538 5.22821 16.0862 5.45129 15.9594 5.64104C15.8326 5.83079 15.6524 5.97868 15.4416 6.06602C15.2307 6.15335 14.9987 6.1762 14.7749 6.13168C14.5511 6.08715 14.3455 5.97726 14.1841 5.81589C14.0227 5.65452 13.9128 5.44893 13.8683 5.2251C13.8238 5.00128 13.8467 4.76928 13.934 4.55844C14.0213 4.3476 14.1692 4.1674 14.359 4.04061C14.5487 3.91383 14.7718 3.84615 15 3.84615C15.306 3.84615 15.5995 3.96772 15.8159 4.18411C16.0323 4.4005 16.1538 4.69398 16.1538 5Z" fill="#151515"/>
</svg>
