<svg width="130" height="34" viewBox="0 0 130 34" fill="none" xmlns="http://www.w3.org/2000/svg">
<path d="M11.288 25.32C5.048 25.32 0.152 20.584 0.152 13.704C0.152 6.44 5.688 1.384 12.088 1.384C16.696 1.384 18.744 3.112 19.48 3.112C19.896 3.112 20.184 2.824 20.312 1.704H20.568L21.368 8.68H21.144C19.288 3.688 15.672 1.928 12.088 1.928C7.032 1.928 2.968 6.088 2.968 12.584C2.968 19.912 7.288 24.104 12.696 24.104C16.632 24.104 19.768 21.64 21.624 17.992L21.944 18.12C20.056 22.312 16.376 25.32 11.288 25.32ZM31.1385 25.32C26.9465 25.32 23.5545 22.184 23.5545 17.512C23.5545 12.584 26.9785 9.32 31.3945 9.32C35.6185 9.32 39.0105 12.456 39.0105 17.128C39.0105 22.056 35.5545 25.32 31.1385 25.32ZM25.9545 16.648C25.9545 20.968 28.1625 24.84 31.5865 24.84C34.4345 24.84 36.6105 22.28 36.6105 17.992C36.6105 13.672 34.3705 9.8 30.9785 9.8C28.1305 9.8 25.9545 12.36 25.9545 16.648ZM47.488 25.192C43.872 25.192 40.992 22.248 40.992 17.704C40.992 12.616 44.48 9.448 48.768 9.448C50.176 9.448 51.488 9.736 52.672 10.344V5.544C52.672 2.728 52.384 2.152 50.816 1.896V1.704C52.224 1.512 53.696 0.967999 54.912 0.231998H55.104C54.912 1.512 54.912 2.984 54.912 5.544V22.056C54.912 23.816 55.2 24.104 56.896 24.104V24.36C55.424 24.456 53.952 24.808 52.672 25.32H52.48L52.736 22.824C51.424 24.104 49.6 25.192 47.488 25.192ZM43.328 16.712C43.328 21.128 45.44 23.88 48.832 23.88C50.016 23.88 51.328 23.464 52.672 22.44V13.48C52.672 11.624 51.072 9.928 48.576 9.928C45.696 9.928 43.328 12.424 43.328 16.712ZM65.282 25.32C61.378 25.32 58.242 22.376 58.242 17.448C58.242 12.744 61.346 9.32 65.57 9.32C69.186 9.32 71.426 11.464 71.49 15.112H60.482C60.45 15.464 60.418 15.848 60.418 16.232C60.418 20.872 63.074 23.752 66.37 23.752C68.61 23.752 70.594 22.376 71.938 19.912L72.162 20.04C70.786 23.56 68.034 25.32 65.282 25.32ZM60.546 14.6H68.29C68.93 14.6 69.09 14.408 69.09 13.736C69.09 11.88 67.906 9.8 65.346 9.8C62.978 9.8 61.026 11.496 60.546 14.6ZM90.456 25.32C85.304 25.32 82.168 22.76 82.168 16.744V3.56C82.168 2.312 81.72 2.056 79.512 1.928V1.704H87.288V1.928C85.08 2.056 84.632 2.312 84.632 3.56V16.552C84.632 22.056 87.32 24.36 91.384 24.36C95.32 24.36 98.296 22.344 98.296 16.616V5.256C98.296 2.76 97.528 2.12 94.552 1.928V1.704H102.104V1.928C99.736 2.12 98.968 2.76 98.968 5.256V16.616C98.968 22.792 95.64 25.32 90.456 25.32ZM101.882 33.416C103.546 33.288 103.994 33.16 103.994 31.88V13.608C103.994 11.688 103.418 11.144 102.138 10.92V10.728C103.482 10.536 105.082 9.928 106.234 9.32H106.426L106.17 11.816C107.482 10.536 109.306 9.448 111.418 9.448C115.034 9.448 117.914 12.392 117.914 16.936C117.914 22.024 114.426 25.192 110.138 25.192C108.73 25.192 107.418 24.904 106.234 24.296V31.88C106.234 33.16 106.714 33.288 108.986 33.416V33.64H101.882V33.416ZM106.234 21.16C106.234 23.016 107.834 24.712 110.33 24.712C113.21 24.712 115.578 22.216 115.578 17.928C115.578 13.512 113.466 10.76 110.074 10.76C108.89 10.76 107.578 11.176 106.234 12.2V21.16ZM124.538 25.32C122.746 25.32 121.274 24.936 120.314 24.456L119.93 20.872H120.154C121.018 23.4 122.554 24.84 124.57 24.84C126.746 24.84 128.186 23.592 128.186 21.864C128.186 20.552 127.354 19.4 125.05 18.44L123.93 17.96C121.242 16.808 120.442 15.304 120.442 13.64C120.442 11.08 122.394 9.32 124.986 9.32C126.522 9.32 127.642 9.608 128.762 10.056L129.05 13.256H128.826C127.994 11.08 126.49 9.8 124.954 9.8C123.418 9.8 121.978 10.728 121.978 12.424C121.978 13.736 122.522 14.728 125.05 15.816L126.17 16.296C128.826 17.448 129.754 18.952 129.754 20.68C129.754 23.432 127.546 25.32 124.538 25.32Z" fill="#6F8471"/>
</svg>
