<svg width="20" height="18" viewBox="0 0 20 18" fill="none" xmlns="http://www.w3.org/2000/svg">
<path id="Vector" d="M19.9435 2.7135C19.8874 2.57645 19.7925 2.4593 19.6707 2.37686C19.5489 2.29443 19.4057 2.25041 19.2592 2.25038H16.4415C16.0475 1.5718 15.4869 1.00796 14.814 0.613695C14.1411 0.219428 13.3789 0.00814166 12.6015 0.00037829C12.0224 -0.00731316 11.4475 0.102354 10.9108 0.322926C10.3741 0.543498 9.88645 0.870521 9.47644 1.28475C9.05446 1.70402 8.71952 2.20449 8.49133 2.75671C8.26315 3.30893 8.14631 3.90178 8.14769 4.50038V5.07132C4.41979 4.07569 1.37062 1.00538 1.33821 0.972566C1.23883 0.871054 1.11287 0.800408 0.975158 0.768947C0.837449 0.737486 0.693729 0.746521 0.560923 0.794986C0.428116 0.843452 0.311752 0.929331 0.225536 1.04251C0.139319 1.15569 0.0868404 1.29145 0.0742786 1.43382C-0.324809 5.91413 0.960419 8.91225 2.11138 10.6382C2.67258 11.4914 3.3553 12.2559 4.13738 12.9069C2.72714 14.5504 0.5067 15.4138 0.482625 15.4232C0.378098 15.4628 0.283769 15.5259 0.206687 15.6076C0.129604 15.6893 0.0717621 15.7877 0.0374818 15.8952C0.00320155 16.0028 -0.00663035 16.1168 0.00872054 16.2287C0.0240714 16.3406 0.0642081 16.4476 0.126132 16.5416C0.195579 16.6466 0.473366 17.0151 1.15209 17.3591C1.99101 17.7848 3.09938 18.0004 4.44387 18.0004C10.9876 18.0004 16.4554 12.8985 17.0137 6.33413L19.7833 3.531C19.8868 3.42606 19.9573 3.29237 19.9858 3.14686C20.0144 3.00134 19.9996 2.85053 19.9435 2.7135ZM15.7766 5.47069C15.6496 5.59959 15.5733 5.77086 15.5618 5.95257C15.185 11.8673 10.3033 16.5004 4.44387 16.5004C3.46606 16.5004 2.77715 16.3691 2.2938 16.2116C3.35957 15.6257 4.84573 14.6179 5.80132 13.1666C5.8574 13.0813 5.89562 12.9852 5.9136 12.8844C5.93158 12.7835 5.92895 12.6799 5.90587 12.5801C5.88279 12.4803 5.83975 12.3864 5.7794 12.3041C5.71906 12.2218 5.64269 12.1529 5.55501 12.1016C5.51149 12.0763 1.48914 9.63225 1.48081 3.10163C2.96234 4.32038 5.67076 6.21132 8.76531 6.73819C8.87136 6.7563 8.98004 6.7508 9.08379 6.72208C9.18754 6.69337 9.28387 6.64213 9.36608 6.57191C9.44829 6.5017 9.51442 6.41421 9.55986 6.31551C9.6053 6.21681 9.62897 6.10927 9.62922 6.00038V4.50038C9.62839 4.1003 9.70661 3.70409 9.85927 3.33508C10.0119 2.96606 10.2359 2.63168 10.5181 2.35163C10.7887 2.07722 11.1108 1.8605 11.4654 1.71429C11.8201 1.56808 12.2001 1.49535 12.583 1.50038C13.7553 1.51538 14.8507 2.23913 15.309 3.30132C15.3668 3.43486 15.4618 3.54846 15.5823 3.62821C15.7029 3.70797 15.8438 3.75042 15.9878 3.75038H17.4693L15.7766 5.47069Z" fill="#151515"/>
</svg>
